<svg width="125" height="19" viewBox="0 0 125 19" fill="none" xmlns="http://www.w3.org/2000/svg">
<path fill-rule="evenodd" clip-rule="evenodd" d="M0 2C0 0.895431 0.895431 0 2 0H122.899C123.741 0 124.207 0.976916 123.676 1.63046L117.284 9.5L123.676 17.3695C124.207 18.0231 123.741 19 122.899 19H2C0.895427 19 0 18.1046 0 17V2Z" fill="url(#paint0_linear_34_92)"/>
<path d="M6.69482 4.75781H8.30713L10.6812 11.5435L13.0552 4.75781H14.6675L11.3286 14H10.0337L6.69482 4.75781ZM5.8252 4.75781H7.43115L7.72314 11.3721V14H5.8252V4.75781ZM13.9312 4.75781H15.5435V14H13.6392V11.3721L13.9312 4.75781ZM24.8047 9.16309V9.60107C24.8047 10.3035 24.7095 10.9341 24.519 11.4927C24.3286 12.0513 24.0599 12.5273 23.7129 12.9209C23.3659 13.3102 22.9512 13.6086 22.4688 13.8159C21.9906 14.0233 21.4595 14.127 20.8755 14.127C20.2957 14.127 19.7646 14.0233 19.2822 13.8159C18.804 13.6086 18.3893 13.3102 18.0381 12.9209C17.6868 12.5273 17.4139 12.0513 17.2192 11.4927C17.0288 10.9341 16.9336 10.3035 16.9336 9.60107V9.16309C16.9336 8.45638 17.0288 7.82585 17.2192 7.27148C17.4097 6.71289 17.6784 6.23682 18.0254 5.84326C18.3766 5.44971 18.7913 5.14925 19.2695 4.94189C19.752 4.73454 20.283 4.63086 20.8628 4.63086C21.4468 4.63086 21.9779 4.73454 22.4561 4.94189C22.9385 5.14925 23.3532 5.44971 23.7002 5.84326C24.0514 6.23682 24.3223 6.71289 24.5127 7.27148C24.7074 7.82585 24.8047 8.45638 24.8047 9.16309ZM22.8813 9.60107V9.15039C22.8813 8.65951 22.8369 8.22786 22.748 7.85547C22.6592 7.48307 22.528 7.16992 22.3545 6.91602C22.181 6.66211 21.9694 6.47168 21.7197 6.34473C21.4701 6.21354 21.1844 6.14795 20.8628 6.14795C20.5412 6.14795 20.2555 6.21354 20.0059 6.34473C19.7604 6.47168 19.5509 6.66211 19.3774 6.91602C19.2082 7.16992 19.0791 7.48307 18.9902 7.85547C18.9014 8.22786 18.8569 8.65951 18.8569 9.15039V9.60107C18.8569 10.0877 18.9014 10.5194 18.9902 10.896C19.0791 11.2684 19.2103 11.5837 19.3838 11.8418C19.5573 12.0957 19.7689 12.2882 20.0186 12.4194C20.2682 12.5506 20.5539 12.6162 20.8755 12.6162C21.1971 12.6162 21.4827 12.5506 21.7324 12.4194C21.9821 12.2882 22.1916 12.0957 22.3608 11.8418C22.5301 11.5837 22.6592 11.2684 22.748 10.896C22.8369 10.5194 22.8813 10.0877 22.8813 9.60107ZM30.9873 11.5815C30.9873 11.4165 30.9619 11.2684 30.9111 11.1372C30.8646 11.0018 30.7757 10.8791 30.6445 10.769C30.5133 10.6548 30.3293 10.5426 30.0923 10.4326C29.8553 10.3226 29.5485 10.2083 29.1719 10.0898C28.7529 9.95443 28.3551 9.80208 27.9785 9.63281C27.6061 9.46354 27.276 9.26676 26.9883 9.04248C26.7048 8.81396 26.4805 8.54948 26.3154 8.24902C26.1546 7.94857 26.0742 7.59945 26.0742 7.20166C26.0742 6.81657 26.1589 6.46745 26.3281 6.1543C26.4974 5.83691 26.7344 5.56608 27.0391 5.3418C27.3438 5.11328 27.7035 4.93766 28.1182 4.81494C28.5371 4.69222 28.9963 4.63086 29.4956 4.63086C30.1769 4.63086 30.7715 4.75358 31.2793 4.99902C31.7871 5.24447 32.1807 5.58089 32.46 6.0083C32.7435 6.43571 32.8853 6.92448 32.8853 7.47461H30.9937C30.9937 7.20378 30.9365 6.9668 30.8223 6.76367C30.7122 6.55632 30.543 6.39339 30.3145 6.2749C30.0902 6.15641 29.8066 6.09717 29.4639 6.09717C29.1338 6.09717 28.8587 6.14795 28.6387 6.24951C28.4186 6.34684 28.2536 6.48014 28.1436 6.64941C28.0335 6.81445 27.9785 7.00065 27.9785 7.20801C27.9785 7.36458 28.0166 7.50635 28.0928 7.6333C28.1732 7.76025 28.2917 7.87874 28.4482 7.98877C28.6048 8.0988 28.7974 8.20247 29.0259 8.2998C29.2544 8.39714 29.5189 8.49235 29.8193 8.58545C30.3229 8.73779 30.7651 8.90918 31.146 9.09961C31.5311 9.29004 31.8527 9.50374 32.1108 9.74072C32.369 9.9777 32.5636 10.2464 32.6948 10.5469C32.826 10.8473 32.8916 11.188 32.8916 11.5688C32.8916 11.9709 32.8133 12.3306 32.6567 12.6479C32.5002 12.9653 32.2738 13.234 31.9775 13.4541C31.6813 13.6742 31.328 13.8413 30.9175 13.9556C30.507 14.0698 30.0479 14.127 29.54 14.127C29.083 14.127 28.6323 14.0677 28.188 13.9492C27.7437 13.8265 27.3395 13.6424 26.9756 13.397C26.6159 13.1515 26.3281 12.8384 26.1123 12.4575C25.8965 12.0767 25.7886 11.626 25.7886 11.1055H27.6992C27.6992 11.3932 27.7437 11.6366 27.8325 11.8354C27.9214 12.0343 28.0462 12.1951 28.207 12.3179C28.3721 12.4406 28.5667 12.5295 28.791 12.5845C29.0195 12.6395 29.2692 12.667 29.54 12.667C29.8701 12.667 30.141 12.6204 30.3525 12.5273C30.5684 12.4342 30.7271 12.3052 30.8286 12.1401C30.9344 11.9751 30.9873 11.7889 30.9873 11.5815ZM38.3188 4.75781V14H36.4209V4.75781H38.3188ZM41.1626 4.75781V6.24951H33.6216V4.75781H41.1626ZM48.7417 10.7056H46.3867V9.22021H48.7417C49.1056 9.22021 49.4019 9.16097 49.6304 9.04248C49.8589 8.91976 50.026 8.75049 50.1318 8.53467C50.2376 8.31885 50.2905 8.07552 50.2905 7.80469C50.2905 7.52962 50.2376 7.2736 50.1318 7.03662C50.026 6.79964 49.8589 6.60921 49.6304 6.46533C49.4019 6.32145 49.1056 6.24951 48.7417 6.24951H47.0469V14H45.1426V4.75781H48.7417C49.4653 4.75781 50.0853 4.889 50.6016 5.15137C51.1221 5.40951 51.5199 5.76709 51.7949 6.22412C52.07 6.68115 52.2075 7.20378 52.2075 7.79199C52.2075 8.38867 52.07 8.90495 51.7949 9.34082C51.5199 9.77669 51.1221 10.1131 50.6016 10.3501C50.0853 10.5871 49.4653 10.7056 48.7417 10.7056ZM61.1133 9.16309V9.60107C61.1133 10.3035 61.0181 10.9341 60.8276 11.4927C60.6372 12.0513 60.3685 12.5273 60.0215 12.9209C59.6745 13.3102 59.2598 13.6086 58.7773 13.8159C58.2992 14.0233 57.7681 14.127 57.1841 14.127C56.6043 14.127 56.0732 14.0233 55.5908 13.8159C55.1126 13.6086 54.6979 13.3102 54.3467 12.9209C53.9954 12.5273 53.7225 12.0513 53.5278 11.4927C53.3374 10.9341 53.2422 10.3035 53.2422 9.60107V9.16309C53.2422 8.45638 53.3374 7.82585 53.5278 7.27148C53.7183 6.71289 53.987 6.23682 54.334 5.84326C54.6852 5.44971 55.0999 5.14925 55.5781 4.94189C56.0605 4.73454 56.5916 4.63086 57.1714 4.63086C57.7554 4.63086 58.2865 4.73454 58.7646 4.94189C59.2471 5.14925 59.6618 5.44971 60.0088 5.84326C60.36 6.23682 60.6309 6.71289 60.8213 7.27148C61.016 7.82585 61.1133 8.45638 61.1133 9.16309ZM59.1899 9.60107V9.15039C59.1899 8.65951 59.1455 8.22786 59.0566 7.85547C58.9678 7.48307 58.8366 7.16992 58.6631 6.91602C58.4896 6.66211 58.278 6.47168 58.0283 6.34473C57.7786 6.21354 57.493 6.14795 57.1714 6.14795C56.8498 6.14795 56.5641 6.21354 56.3145 6.34473C56.069 6.47168 55.8595 6.66211 55.686 6.91602C55.5168 7.16992 55.3877 7.48307 55.2988 7.85547C55.21 8.22786 55.1655 8.65951 55.1655 9.15039V9.60107C55.1655 10.0877 55.21 10.5194 55.2988 10.896C55.3877 11.2684 55.5189 11.5837 55.6924 11.8418C55.8659 12.0957 56.0775 12.2882 56.3271 12.4194C56.5768 12.5506 56.8625 12.6162 57.1841 12.6162C57.5057 12.6162 57.7913 12.5506 58.041 12.4194C58.2907 12.2882 58.5002 12.0957 58.6694 11.8418C58.8387 11.5837 58.9678 11.2684 59.0566 10.896C59.1455 10.5194 59.1899 10.0877 59.1899 9.60107ZM66.0835 10.7056H63.7285V9.22021H66.0835C66.4474 9.22021 66.7437 9.16097 66.9722 9.04248C67.2007 8.91976 67.3678 8.75049 67.4736 8.53467C67.5794 8.31885 67.6323 8.07552 67.6323 7.80469C67.6323 7.52962 67.5794 7.2736 67.4736 7.03662C67.3678 6.79964 67.2007 6.60921 66.9722 6.46533C66.7437 6.32145 66.4474 6.24951 66.0835 6.24951H64.3887V14H62.4844V4.75781H66.0835C66.8071 4.75781 67.4271 4.889 67.9434 5.15137C68.4639 5.40951 68.8617 5.76709 69.1367 6.22412C69.4118 6.68115 69.5493 7.20378 69.5493 7.79199C69.5493 8.38867 69.4118 8.90495 69.1367 9.34082C68.8617 9.77669 68.4639 10.1131 67.9434 10.3501C67.4271 10.5871 66.8071 10.7056 66.0835 10.7056ZM75.9668 4.75781H77.8647V10.8643C77.8647 11.5752 77.7124 12.174 77.4077 12.6606C77.1073 13.1473 76.6904 13.5133 76.1572 13.7588C75.6283 14.0042 75.0189 14.127 74.3291 14.127C73.6393 14.127 73.0257 14.0042 72.4883 13.7588C71.9551 13.5133 71.5361 13.1473 71.2314 12.6606C70.931 12.174 70.7808 11.5752 70.7808 10.8643V4.75781H72.6851V10.8643C72.6851 11.279 72.7507 11.6175 72.8818 11.8799C73.013 12.1423 73.2013 12.3348 73.4468 12.4575C73.6965 12.5802 73.9906 12.6416 74.3291 12.6416C74.6761 12.6416 74.9702 12.5802 75.2114 12.4575C75.4569 12.3348 75.6431 12.1423 75.77 11.8799C75.9012 11.6175 75.9668 11.279 75.9668 10.8643V4.75781ZM85.374 12.5146V14H80.7212V12.5146H85.374ZM81.3369 4.75781V14H79.4326V4.75781H81.3369ZM90.3506 6.33838L87.8369 14H85.812L89.2461 4.75781H90.5347L90.3506 6.33838ZM92.439 14L89.9189 6.33838L89.7158 4.75781H91.0171L94.4702 14H92.439ZM92.3247 10.5596V12.0513H87.4434V10.5596H92.3247ZM95.3271 4.75781H98.7739C99.4806 4.75781 100.088 4.86361 100.596 5.0752C101.108 5.28678 101.501 5.59993 101.776 6.01465C102.051 6.42936 102.189 6.93929 102.189 7.54443C102.189 8.03955 102.104 8.46484 101.935 8.82031C101.77 9.17155 101.535 9.46566 101.23 9.70264C100.93 9.93538 100.577 10.1216 100.17 10.2612L99.5674 10.5786H96.5713L96.5586 9.09326H98.7866C99.1209 9.09326 99.3981 9.03402 99.6182 8.91553C99.8382 8.79704 100.003 8.632 100.113 8.42041C100.228 8.20882 100.285 7.96338 100.285 7.68408C100.285 7.38786 100.23 7.13184 100.12 6.91602C100.01 6.7002 99.8424 6.53516 99.6182 6.4209C99.3939 6.30664 99.1125 6.24951 98.7739 6.24951H97.2314V14H95.3271V4.75781ZM100.494 14L98.3867 9.88037L100.399 9.86768L102.532 13.9111V14H100.494Z" fill="black"/>
<defs>
<linearGradient id="paint0_linear_34_92" x1="42.6693" y1="-9.14345" x2="34.7996" y2="26.6509" gradientUnits="userSpaceOnUse">
<stop stop-color="#FFE073"/>
<stop offset="1" stop-color="#FFD029"/>
</linearGradient>
</defs>
</svg>
